<svg xmlns="http://www.w3.org/2000/svg" xmlns:xlink="http://www.w3.org/1999/xlink" width="98" height="98" viewBox="0 0 98 98"><defs><style>.a{fill:#583188;}.b{fill:#f4f4f4;}.c{filter:url(#a);}</style><filter id="a" x="0" y="0" width="98" height="98" filterUnits="userSpaceOnUse"><feOffset dy="3" input="SourceAlpha"/><feGaussianBlur stdDeviation="3" result="b"/><feFlood flood-opacity="0.161"/><feComposite operator="in" in2="b"/><feComposite in="SourceGraphic"/></filter></defs><g transform="translate(649 -2427)"><g class="c" transform="matrix(1, 0, 0, 1, -649, 2427)"><circle class="a" cx="40" cy="40" r="40" transform="translate(9 6)"/></g><path class="b" d="M27.78,0H2.222A2.19,2.19,0,0,0,0,2.151v25.7A2.187,2.187,0,0,0,2.222,30H27.779A2.185,2.185,0,0,0,30,27.855V2.151A2.188,2.188,0,0,0,27.78,0ZM9.1,25.111H4.566V11.57H9.1V25.111ZM6.829,9.722H6.8a2.35,2.35,0,1,1,.059-4.685,2.351,2.351,0,1,1-.029,4.685Zm18.6,15.389H20.911V17.869c0-1.82-.665-3.071-2.3-3.071a2.459,2.459,0,0,0-2.319,1.66,3,3,0,0,0-.15,1.091v7.562H11.6s.057-12.274,0-13.541h4.534v1.92a4.487,4.487,0,0,1,4.079-2.24c2.985,0,5.218,1.936,5.218,6.1v7.765ZM16.11,13.534a.084.084,0,0,1,.026-.042v.042Z" transform="translate(-614 2458)"/></g></svg>